<svg xmlns="http://www.w3.org/2000/svg" style="display: none;"><symbol id="desktop" viewBox="0 0 470 470"><title>desktop</title><path d="M432.5,12.5h-395C16.822,12.5,0,29.323,0,50v300c0,20.677,16.822,37.5,37.5,37.5h145v55H130c-4.142,0-7.5,3.358-7.5,7.5 c0,4.142,3.358,7.5,7.5,7.5h210c4.142,0,7.5-3.358,7.5-7.5c0-4.142-3.358-7.5-7.5-7.5h-52.5v-55h145 c20.678,0,37.5-16.823,37.5-37.5V50C470,29.323,453.178,12.5,432.5,12.5z M272.5,442.5h-75v-55h75V442.5z M455,350 c0,12.406-10.093,22.5-22.5,22.5h-395C25.093,372.5,15,362.406,15,350v-22.5h440V350z M455,312.5H15V50 c0-12.406,10.093-22.5,22.5-22.5h395c12.407,0,22.5,10.094,22.5,22.5V312.5z"/><path d="M432.5,42.5h-395c-4.142,0-7.5,3.358-7.5,7.5v240c0,4.142,3.358,7.5,7.5,7.5h325c4.142,0,7.5-3.358,7.5-7.5 c0-4.142-3.358-7.5-7.5-7.5H45v-225h380v225h-32.5c-4.142,0-7.5,3.358-7.5,7.5c0,4.142,3.358,7.5,7.5,7.5h40 c4.142,0,7.5-3.358,7.5-7.5V50C440,45.858,436.642,42.5,432.5,42.5z"/></symbol><symbol id="phone" viewBox="0 0 463.009 463.009"><title>phone</title><path d="m462.692,381.085c-1.472-11.126-7.895-20.719-17.62-26.318l-114.226-65.767c-13.99-8.055-31.738-5.71-43.157,5.708l-22.499,22.499c-5.987,5.988-15.459,6.518-22.028,1.231-17.737-14.272-35.201-29.979-51.906-46.685-16.705-16.705-32.412-34.168-46.685-51.906-5.287-6.57-4.758-16.041 1.231-22.029l22.498-22.499c11.418-11.417 13.766-29.163 5.709-43.156l-65.767-114.226c-5.6-9.726-15.192-16.148-26.318-17.62-11.127-1.475-22.06,2.236-29.996,10.172l-33.901,33.902c-23.661,23.662-24.041,66.944-1.07,121.875 22.088,52.818 63.308,110.962 116.065,163.721 52.759,52.758 110.903,93.978 163.722,116.066 27.039,11.307 51.253,16.957 71.697,16.956 21.088,0 38.163-6.013 50.178-18.027l33.901-33.902c7.935-7.936 11.643-18.869 10.172-29.995zm-139.33-79.086l114.226,65.767c5.649,3.252 9.379,8.824 10.233,15.286 0.718,5.423-0.691,10.763-3.885,15.066l-151.805-86.638 6.165-6.165c6.631-6.631 16.941-7.994 25.066-3.316zm-243.406-286.811c6.463,0.855 12.034,4.585 15.286,10.234l65.767,114.226c4.68,8.127 3.316,18.435-3.315,25.065l-5.663,5.663-87.114-151.303c3.561-2.637 7.82-4.069 12.26-4.069 0.921-1.77636e-15 1.85,0.061 2.779,0.184zm328.055,419.187c-18.798,18.798-57.244,18.01-105.48-2.162-51.06-21.352-107.491-61.424-158.901-112.833-51.41-51.41-91.482-107.842-112.834-158.901-20.173-48.237-20.96-86.683-2.162-105.482l25.167-25.168 87.245,151.532-5.851,5.851c-11.415,11.416-12.409,29.488-2.311,42.04 14.609,18.156 30.68,36.024 47.764,53.108 17.086,17.085 34.954,33.156 53.109,47.765 12.55,10.098 30.622,9.105 42.04-2.312l5.338-5.338 152.016,86.759-25.14,25.141z"/></symbol><symbol id="pass" viewBox="0 0 60 60"><title>pass</title><path d="M55.783,8H4.217C1.892,8,0,9.892,0,12.217v35.566C0,50.108,1.892,52,4.217,52h51.566C58.108,52,60,50.108,60,47.783V12.217 C60,9.892,58.108,8,55.783,8z M58,47.783C58,49.006,57.006,50,55.783,50H4.217C2.994,50,2,49.006,2,47.783V12.217 C2,10.994,2.994,10,4.217,10h51.566C57.006,10,58,10.994,58,12.217V47.783z"/><path d="M22.638,36.246L19,34.388v-0.387c1.628-0.889,2.773-2.353,3.412-4.364C23.381,29.123,24,28.122,24,27v-1 c0-0.926-0.431-1.785-1.151-2.349c-0.624-3.78-3.262-5.696-7.849-5.696c-0.217,0-0.429,0.008-0.636,0.024 c-0.864,0.071-2.129-0.004-3.224-0.74c-0.409-0.276-0.718-0.544-0.915-0.793c-0.336-0.429-0.901-0.579-1.402-0.373 c-0.502,0.206-0.797,0.708-0.734,1.247c0.042,0.374,0.105,0.809,0.2,1.286c0.193,0.975,0.193,0.975-0.078,1.558 c-0.102,0.221-0.228,0.49-0.376,0.853c-0.331,0.811-0.566,1.699-0.701,2.647C6.424,24.229,6,25.083,6,26v1 c0,1.122,0.619,2.123,1.588,2.637c0.639,2.012,1.784,3.476,3.412,4.364v0.376l-3.769,1.858C5.855,36.985,5,38.425,5,39.993v1.325 C5,42.121,5,44,15,44s10-1.879,10-2.682v-1.245C25,38.442,24.095,36.977,22.638,36.246z M23,41.092C22.376,41.472,19.838,42,15,42 s-7.376-0.528-8-0.908v-1.099c0-0.835,0.455-1.603,1.152-1.982l3.857-1.901c0.602-0.294,0.99-0.917,0.99-1.588v-1.803l-0.604-0.26 c-1.517-0.654-2.503-1.901-3.015-3.814l-0.143-0.533l-0.526-0.164C8.293,27.817,8,27.428,8,27v-1c0-0.362,0.207-0.698,0.541-0.876 l0.469-0.25l0.055-0.529c0.099-0.938,0.308-1.803,0.622-2.57c0.133-0.325,0.246-0.568,0.338-0.767 c0.339-0.728,0.462-1.104,0.377-1.875c1.176,0.672,2.589,0.958,4.122,0.841c0.155-0.013,0.314-0.019,0.477-0.019 c3.744,0,5.572,1.356,5.929,4.398l0.062,0.522l0.465,0.246C21.791,25.299,22,25.636,22,26v1c0,0.428-0.293,0.817-0.712,0.947 l-0.526,0.164l-0.143,0.533c-0.512,1.913-1.498,3.16-3.015,3.814L17,32.719v1.811c0,0.669,0.37,1.272,0.964,1.575l3.775,1.929 C22.517,38.422,23,39.204,23,40.073V41.092z"/><path d="M30,23h10c0.553,0,1-0.447,1-1s-0.447-1-1-1H30c-0.553,0-1,0.447-1,1S29.447,23,30,23z"/><path d="M44,23h1c0.553,0,1-0.447,1-1s-0.447-1-1-1h-1c-0.553,0-1,0.447-1,1S43.447,23,44,23z"/><path d="M31,38h-1c-0.553,0-1,0.447-1,1s0.447,1,1,1h1c0.553,0,1-0.447,1-1S31.553,38,31,38z"/><path d="M37,38h-2c-0.553,0-1,0.447-1,1s0.447,1,1,1h2c0.553,0,1-0.447,1-1S37.553,38,37,38z"/><path d="M42,38h-1c-0.553,0-1,0.447-1,1s0.447,1,1,1h1c0.553,0,1-0.447,1-1S42.553,38,42,38z"/><path d="M48,38h-2c-0.553,0-1,0.447-1,1s0.447,1,1,1h2c0.553,0,1-0.447,1-1S48.553,38,48,38z"/><path d="M51.29,38.29C51.109,38.479,51,38.74,51,39s0.109,0.52,0.29,0.71C51.479,39.89,51.74,40,52,40s0.52-0.11,0.71-0.29 C52.89,39.52,53,39.26,53,39s-0.11-0.521-0.29-0.71C52.33,37.92,51.66,37.92,51.29,38.29z"/><path d="M52,27H30c-0.553,0-1,0.447-1,1s0.447,1,1,1h22c0.553,0,1-0.447,1-1S52.553,27,52,27z"/><path d="M52,33H30c-0.553,0-1,0.447-1,1s0.447,1,1,1h22c0.553,0,1-0.447,1-1S52.553,33,52,33z"/></symbol><symbol id="book" viewBox="-32 0 477 477.44016"><title>book</title><path d="m399.628906 395.457031-47.335937-47.351562v-340.105469c0-4.417969-3.582031-8-8-8h-240c-.152344 0-.296875.078125-.449219.0898438-.734375.0351562-1.460938.1835942-2.152344.4296872-.234375.070313-.46875.152344-.695312.25-.890625.382813-1.703125.925781-2.398438 1.597657l-96 96c-.671875.679687-1.214844 1.472656-1.601562 2.34375-.113282.25-.175782.496093-.265625.753906-.230469.664062-.367188 1.355468-.40625 2.054687 0 .175781-.105469.328125-.105469.503907v303.976562c0 4.417969 3.582031 8 8 8h276.175781l47.34375 47.320312c8.964844 9.066407 21.195313 14.152344 33.945313 14.121094 19.433594.015625 36.957031-11.6875 44.390625-29.644531 7.429687-17.953125 3.304687-38.617187-10.453125-52.339844zm-67.816406 45.34375-124.519531-124.480469 45.320312-45.328124 124.480469 124.527343zm-131.289062-140.34375-10.847657-47.066406 47.074219 10.839844zm-104.230469-273.144531v68.6875h-68.6875zm-80 372.6875v-288h88c4.417969 0 8-3.582031 8-8v-88h224v316.097656l-78.015625-78.074218-.089844-.054688c-.660156-.628906-1.421875-1.140625-2.253906-1.511719-.226563-.097656-.441406-.167969-.664063-.25-.28125-.125-.566406-.234375-.859375-.328125l-73.597656-16.957031c-2.691406-.625-5.511719.183594-7.464844 2.132813-1.953125 1.953124-2.757812 4.777343-2.136718 7.464843l16.960937 73.601563c.09375.292968.203125.582031.328125.863281.082031.214844.144531.429687.25.648437.367188.84375.886719 1.617188 1.527344 2.277344l.039062.066406 78.070313 78.023438zm372 52.039062c-5.984375 6.003907-14.113281 9.378907-22.589844 9.378907s-16.605469-3.375-22.585937-9.378907l3.765624-3.773437 41.480469-41.472656c6.003907 5.992187 9.375 14.132812 9.359375 22.617187-.011718 8.484375-3.40625 16.613282-9.429687 22.589844zm0 0"/><path d="m72.292969 160h208c4.417969 0 8-3.582031 8-8s-3.582031-8-8-8h-208c-4.417969 0-8 3.582031-8 8s3.582031 8 8 8zm0 0"/><path d="m72.292969 208h208c4.417969 0 8-3.582031 8-8s-3.582031-8-8-8h-208c-4.417969 0-8 3.582031-8 8s3.582031 8 8 8zm0 0"/><path d="m128.292969 240h-56c-4.417969 0-8 3.582031-8 8s3.582031 8 8 8h56c4.417969 0 8-3.582031 8-8s-3.582031-8-8-8zm0 0"/></symbol><symbol id="time" viewBox="0 0 60 60"><title>time</title><path d="M30,0C13.458,0,0,13.458,0,30s13.458,30,30,30s30-13.458,30-30S46.542,0,30,0z M30,58C14.561,58,2,45.439,2,30 S14.561,2,30,2s28,12.561,28,28S45.439,58,30,58z"/><path d="M30,6c-0.552,0-1,0.447-1,1v23H14c-0.552,0-1,0.447-1,1s0.448,1,1,1h16c0.552,0,1-0.447,1-1V7C31,6.447,30.552,6,30,6z"/></symbol><symbol id="group" viewBox="0 0 380.65 380.65"><title>group</title><g> <g> <path d="M310.805,268.65h-44.84c-9.267-0.006-18.377,2.392-26.44,6.96c-6.863,3.893-12.8,9.229-17.4,15.64 c-3.064-0.535-6.169-0.802-9.28-0.8h-44.88c-3.111-0.003-6.216,0.265-9.28,0.8c-4.599-6.412-10.536-11.748-17.4-15.64 c-8.063-4.568-17.173-6.966-26.44-6.96h-44.84c-29.796,0.066-53.934,24.204-54,54v30.44c0.022,3.188,2.612,5.76,5.8,5.76h92v16 c0,3.203,2.597,5.8,5.8,5.8h141.44c3.203,0,5.8-2.597,5.8-5.8v-16h92c3.203,0,5.8-2.597,5.8-5.8v-30.4 C364.579,292.916,340.538,268.804,310.805,268.65z M114.405,339.25v1.24c0,0.56,0,1.08,0,1.64v2.32v2.8h-86.8v-24.6 c0.066-23.39,19.01-42.334,42.4-42.4h44.84c7.261-0.008,14.4,1.866,20.72,5.44c4.237,2.396,8.038,5.494,11.24,9.16 C128.756,302.684,116.36,319.672,114.405,339.25z M255.125,344.45v24.64h-129.56v-25.08c0-0.453,0-0.893,0-1.32 c0-0.693,0-1.387,0-2.08v-1.04c0-0.4,0-0.8,0-1.2v-1.28v-0.4v-0.44v-0.88l0.24-0.96l0.4-1.44l0.28-0.96 c5.746-17.415,21.982-29.206,40.32-29.28l1.16-0.64h44.88c21.297,0.078,39.258,15.885,42.04,37c0,0.88,0,1.76,0.24,2.64 C255.125,342.637,255.125,343.543,255.125,344.45z M353.205,347.29h-86.4v-3.48c0-0.44,0-0.88,0-1.32c0-0.453,0-0.907,0-1.36 c0-0.64,0-1.32,0-1.96v-0.6v-0.68v-1.24v-0.2v-0.48v-0.44v-0.28v-0.52v-0.56v-0.28v-0.36v-0.36v-0.36v-0.88v-0.4v-0.52v-0.52 l-0.28-1v-0.4v-0.36v-0.28v-0.4v-0.52l-0.56-1.56c-5.212-13.855-15.842-24.99-29.44-30.84c2.406-3.562,5.332-6.744,8.68-9.44 c6.32-3.574,13.459-5.448,20.72-5.44h44.88c23.389,0.066,42.334,19.01,42.4,42.4V347.29z"/> </g> </g><g> <g> <circle cx="190.645" cy="77.85" r="6.56"/> </g> </g><g> <g> <path d="M121.285,189.17c-7.643-7.688-18.039-12.008-28.88-12c-22.555-0.02-40.856,18.248-40.876,40.804 c-0.02,22.555,18.248,40.856,40.804,40.876s40.856-18.248,40.876-40.804C133.218,207.221,128.93,196.835,121.285,189.17z M113.085,238.65c-11.417,11.421-29.93,11.425-41.352,0.008c-11.421-11.417-11.425-29.93-0.008-41.352 c11.417-11.421,29.93-11.425,41.352-0.008c5.484,5.482,8.566,12.918,8.568,20.672C121.656,225.728,118.576,233.17,113.085,238.65z "/> </g> </g><g> <g> <circle cx="233.045" cy="77.85" r="6.56"/> </g> </g><g> <g> <path d="M258.725,22.73c-19.566-15.048-43.638-23.053-68.32-22.72c-24.682-0.333-48.753,7.672-68.32,22.72 c-17.92,14.32-29,34.24-29,56.28c0.022,11.194,2.87,22.201,8.28,32c5.148,9.257,12.066,17.412,20.36,24l-4.6,30.6 c-0.479,3.145,1.683,6.082,4.828,6.561c1.303,0.198,2.634-0.056,3.772-0.721l31.28-18.24c4.957,1.474,10.009,2.61,15.12,3.4 c6.062,0.934,12.187,1.402,18.32,1.4c24.682,0.333,48.754-7.672,68.32-22.72c17.88-14.36,28.96-34.24,28.96-56.28 S276.645,37.05,258.725,22.73z M251.525,126.33c-17.545,13.349-39.077,20.395-61.12,20c-5.53,0.008-11.053-0.406-16.52-1.24 c-5.424-0.811-10.774-2.055-16-3.72c-1.551-0.489-3.236-0.301-4.64,0.52l-22.84,13.48l3.32-22c0.317-2.149-0.594-4.295-2.36-5.56 c-8.204-5.937-15.027-13.578-20-22.4c-4.448-8.089-6.786-17.169-6.8-26.4c0-18.4,9.4-35.12,24.6-47.28 c17.545-13.349,39.077-20.395,61.12-20c22.043-0.395,43.575,6.651,61.12,20c15.2,12,24.6,28.88,24.6,47.28 C276.005,97.41,266.725,114.13,251.525,126.33z"/> </g> </g><g> <g> <path d="M288.438,177.13c-22.555-0.02-40.856,18.248-40.876,40.804c-0.01,10.825,4.279,21.212,11.924,28.876 c7.643,7.688,18.039,12.008,28.88,12c22.555,0.02,40.856-18.248,40.876-40.804S310.993,177.15,288.438,177.13z M309.085,238.633 c-11.417,11.421-29.93,11.425-41.352,0.008c-5.484-5.482-8.566-12.918-8.568-20.672c-0.011-7.758,3.069-15.2,8.56-20.68 c11.417-11.421,29.93-11.425,41.352-0.008C320.498,208.698,320.502,227.212,309.085,238.633z"/> </g> </g><g> <g> <circle cx="148.245" cy="77.85" r="6.56"/> </g> </g><g> <g> <path d="M219.225,210.83c-7.652-7.626-18.017-11.905-28.82-11.9c-10.841-0.008-21.237,4.312-28.88,12 c-15.906,15.961-15.861,41.794,0.1,57.7c15.961,15.906,41.794,15.861,57.7-0.1S235.186,226.736,219.225,210.83z M190.397,269.042 c-16.149-0.005-29.236-13.1-29.232-29.248s13.1-29.236,29.248-29.232c7.754,0.002,15.19,3.084,20.672,8.568 c5.491,5.48,8.571,12.922,8.56,20.68C219.64,255.959,206.545,269.046,190.397,269.042z"/> </g> </g></symbol><symbol id="paper" viewBox="-66 0 569 569.286"><title>paper</title><path d="m.109375 66.382812v493.132813c0 5.238281 4.246094 9.484375 9.484375 9.484375h360.367188c5.234374 0 9.480468-4.246094 9.480468-9.484375v-398.296875c0-.210938-.101562-.390625-.121094-.597656-.046874-.832032-.210937-1.652344-.484374-2.4375-.105469-.304688-.179688-.597656-.3125-.894532-.460938-1.03125-1.101563-1.972656-1.898438-2.777343l-94.832031-94.832031c-.804688-.800782-1.75-1.441407-2.789063-1.898438-.285156-.121094-.574218-.222656-.871094-.3125-.792968-.273438-1.617187-.4375-2.457031-.492188-.160156.027344-.347656-.074218-.546875-.074218h-265.535156c-5.238281 0-9.484375 4.242187-9.484375 9.480468zm346.957031 85.351563h-62.457031v-62.457031zm-327.992187-75.867187h246.570312v85.351562c0 5.234375 4.246094 9.480469 9.480469 9.480469h85.351562v379.335937h-341.402343zm0 0"/><path d="m398.410156 493.132812v18.964844h28.449219c5.238281 0 9.484375-4.242187 9.484375-9.480468v-493.132813c0-5.238281-4.246094-9.484375-9.484375-9.484375h-360.367187c-5.238282 0-9.484376 4.246094-9.484376 9.484375v28.449219h18.96875v-18.96875h341.398438v474.167968zm0 0"/><path d="m75.976562 189.667969h227.597657v18.964843h-227.597657zm0 0"/><path d="m75.976562 132.765625h75.867188v18.96875h-75.867188zm0 0"/><path d="m75.976562 246.566406h151.734376v18.96875h-151.734376zm0 0"/><path d="m246.675781 246.566406h56.898438v18.96875h-56.898438zm0 0"/><path d="m75.976562 303.464844h227.597657v18.96875h-227.597657zm0 0"/><path d="m75.976562 417.265625h227.597657v18.96875h-227.597657zm0 0"/><path d="m161.324219 360.367188h142.25v18.964843h-142.25zm0 0"/><path d="m75.976562 360.367188h66.382813v18.964843h-66.382813zm0 0"/><path d="m75.976562 474.167969h37.933594v18.964843h-37.933594zm0 0"/><path d="m132.875 474.167969h170.699219v18.964843h-170.699219zm0 0"/></symbol><symbol id="tablet" viewBox="0 0 512.002 512.002"><title>tablet</title><g> <g> <path d="M329.941,74.505c-6.954-26.027-23.553-47.733-46.738-61.119C268.034,4.629,250.759,0,233.245,0 c-35.948,0-69.373,19.214-87.23,50.144l-63.284,109.61c-0.006,0.01-0.013,0.019-0.019,0.029c-0.006,0.01-0.01,0.021-0.016,0.031 L19.41,269.427C-8.278,317.385,8.214,378.928,56.172,406.616C71.338,415.372,88.611,420,106.123,420 c32.786,0,63.559-15.872,82.316-42.457c0.172-0.244,0.333-0.495,0.482-0.752l131.037-226.202 C333.335,127.495,336.88,100.476,329.941,74.505z M171.846,366.366C156.807,387.435,132.272,400,106.123,400 c-14.006,0-27.821-3.702-39.951-10.705c-38.408-22.174-51.615-71.461-29.441-109.869l58.303-100.983l21.646,12.497 c0.002,0.001,0.003,0.003,0.005,0.003c0.001,0.001,0.003,0.001,0.004,0.002l117.482,67.831L171.846,366.366z M302.651,140.562 l-58.456,100.91l-108.851-62.847l27.976-48.456c2.761-4.783,1.123-10.899-3.66-13.66c-4.783-2.762-10.899-1.123-13.66,3.66 l-27.976,48.456l-12.991-7.5l58.301-100.98C177.631,35.382,204.419,20,233.245,20c14.008,0,27.826,3.702,39.958,10.707 c18.555,10.712,31.843,28.101,37.416,48.961C316.177,100.472,313.347,122.098,302.651,140.562z"/> </g> </g><g> <g> <path d="M462.253,342.82c-24.418-6.977-56.62-10.819-90.673-10.819c-34.053,0-66.254,3.842-90.672,10.819 c-29.012,8.289-43.737,19.959-43.771,34.686c0,0.018-0.003,0.034-0.003,0.051v88.888c0,14.778,14.704,26.473,43.702,34.758 c24.372,6.964,56.599,10.799,90.742,10.799s66.37-3.835,90.742-10.799c28.999-8.285,43.702-19.98,43.702-34.758v-88.826 c0.002-0.02,0.004-0.041,0.004-0.062C506.026,362.806,491.298,351.118,462.253,342.82z M286.403,362.051 c22.682-6.48,52.932-10.049,85.178-10.049c32.247,0,62.497,3.569,85.179,10.049c24.111,6.889,29.237,14.288,29.266,15.495 c0,0.004-0.001,0.008-0.001,0.012v0.017c-0.041,1.22-5.183,8.608-29.265,15.489c-22.682,6.48-52.932,10.049-85.179,10.049 c-32.246,0-62.496-3.569-85.178-10.049c-24.179-6.908-29.267-14.331-29.267-15.506 C257.136,376.383,262.224,368.959,286.403,362.051z M486.026,466.445c-0.002,1.426-5.197,8.67-29.198,15.528 c-22.636,6.467-52.911,10.029-85.248,10.029c-32.338,0-62.612-3.561-85.248-10.029c-24.001-6.857-29.196-14.102-29.196-15.528 V403.13c6.403,3.405,14.326,6.465,23.773,9.164c24.418,6.977,56.619,10.819,90.672,10.819c34.053,0,66.255-3.842,90.673-10.819 c9.446-2.699,17.367-5.758,23.771-9.163v24.956c-14.348,7.1-32.246,12.85-52.205,16.731c-5.422,1.054-8.962,6.303-7.908,11.725 c0.929,4.777,5.114,8.093,9.806,8.093c0.633,0,1.275-0.061,1.919-0.186c17.812-3.463,34.238-8.363,48.389-14.377V466.445z"/> </g> </g><g> <g> <path d="M174.683,90.486c-4.783-2.761-10.898-1.123-13.66,3.66l-0.162,0.281c-2.761,4.783-1.123,10.898,3.66,13.66 c1.575,0.909,3.294,1.341,4.991,1.341c3.456,0,6.817-1.793,8.669-5.001l0.162-0.281C181.105,99.363,179.466,93.248,174.683,90.486 z"/> </g> </g><g> <g> <path d="M415.713,457.961c-0.548-5.494-5.438-9.503-10.945-8.955l-0.225,0.022c-5.498,0.52-9.533,5.4-9.012,10.898 c0.49,5.177,4.846,9.057,9.943,9.057c0.315,0,0.635-0.015,0.955-0.045l0.329-0.032 C412.253,468.357,416.263,463.456,415.713,457.961z"/> </g> </g></symbol></svg>